/* XPM */
static char *f0726f456cce45c795d38a64653614ceMWMdsQ75McSOyY62[] = {
/* columns rows colors chars-per-pixel */
"60 60 220 2 ",
"   c None",
".  c #561B07",
"X  c #48200D",
"o  c #5E2808",
"O  c #582503",
"+  c #512C16",
"@  c #5C2A13",
"#  c #56331C",
"$  c #5A341C",
"%  c #5F3616",
"&  c #612A09",
"*  c #68280B",
"=  c #7A2908",
"-  c #71320F",
";  c #632C15",
":  c #7A2F17",
">  c #683716",
",  c #7C3413",
"<  c #743B16",
"1  c #7B3B1D",
"2  c #79351C",
"3  c #563322",
"4  c #5D3825",
"5  c #5A3C2C",
"6  c #54382D",
"7  c #5D3E30",
"8  c #633B23",
"9  c #6C3B22",
"0  c #633C2A",
"q  c #6A3E2D",
"w  c #653327",
"e  c #743C22",
"r  c #7D3C23",
"t  c #733B2A",
"y  c #7E3A2B",
"u  c #6B3C31",
"i  c #713F30",
"p  c #6B421C",
"a  c #77401F",
"s  c #7A4418",
"d  c #5C4233",
"f  c #5F4A38",
"g  c #5C513E",
"h  c #66442F",
"j  c #6C432B",
"k  c #664A27",
"l  c #744325",
"z  c #7E4122",
"x  c #724329",
"c  c #78462A",
"v  c #624632",
"b  c #644934",
"n  c #6D4A33",
"m  c #624B3A",
"M  c #6A4B3B",
"N  c #734335",
"B  c #744C33",
"V  c #7B4D34",
"C  c #724C3B",
"Z  c #784D3A",
"A  c #744636",
"S  c #6C5A3C",
"D  c #69553E",
"F  c #71523B",
"G  c #7C5C3C",
"H  c #7B5339",
"J  c #624D40",
"K  c #724B41",
"L  c #6F5443",
"P  c #6A5B45",
"I  c #6A5C4A",
"U  c #745643",
"Y  c #7A5542",
"T  c #755B43",
"R  c #7E5A43",
"E  c #75574B",
"W  c #596559",
"Q  c #6C614A",
"!  c #64614E",
"~  c #75624C",
"^  c #756149",
"/  c #656355",
"(  c #6B6254",
")  c #66685B",
"_  c #626C62",
"`  c #637266",
"'  c #882C09",
"]  c #8C3506",
"[  c #87310C",
"{  c #8D3409",
"}  c #8F3B0B",
"|  c #853708",
" . c #913305",
".. c #933C0A",
"X. c #973A0D",
"o. c #8C3613",
"O. c #823917",
"+. c #8C3B14",
"@. c #84361F",
"#. c #8A351C",
"$. c #833C1B",
"%. c #8B3D18",
"&. c #933E13",
"*. c #9A3D12",
"=. c #91361B",
"-. c #9C3B1A",
";. c #A03F0E",
":. c #893723",
">. c #8E3C2C",
",. c #8A3826",
"<. c #903F30",
"1. c #84430E",
"2. c #8C440E",
"3. c #95430E",
"4. c #9A440E",
"5. c #9F4F09",
"6. c #8D4214",
"7. c #8F431E",
"8. c #844417",
"9. c #964413",
"0. c #9B4413",
"q. c #974C13",
"w. c #9B4B15",
"e. c #95441C",
"r. c #9B451B",
"t. c #944A1F",
"y. c #9D4A1C",
"u. c #9D531D",
"i. c #A1410E",
"p. c #AC450E",
"a. c #A44E0F",
"s. c #B3510F",
"d. c #A44513",
"f. c #A44B15",
"g. c #AE4A14",
"h. c #A44719",
"j. c #A84718",
"k. c #A34C1C",
"l. c #AA4D1C",
"z. c #A94510",
"x. c #B44E15",
"c. c #B24E1D",
"v. c #A55414",
"b. c #AB5316",
"n. c #A4541D",
"m. c #AB541C",
"M. c #A75818",
"N. c #AD5B1F",
"B. c #B25412",
"V. c #BC5317",
"C. c #B4521D",
"Z. c #BA5319",
"A. c #B15B1C",
"S. c #8C4523",
"D. c #8E4B26",
"F. c #8A4C2F",
"G. c #834A29",
"H. c #9B4526",
"J. c #934B23",
"K. c #9D4B22",
"L. c #954B29",
"P. c #8D522F",
"I. c #975020",
"U. c #9E5524",
"Y. c #96532B",
"T. c #9D562B",
"R. c #9E5A2C",
"E. c #98592B",
"W. c #8B4D32",
"Q. c #904F30",
"!. c #9A4833",
"~. c #8E5637",
"^. c #84543B",
"/. c #8A5639",
"(. c #875837",
"). c #955531",
"_. c #985730",
"`. c #945936",
"'. c #9B5A32",
"]. c #935C3B",
"[. c #A24B22",
"{. c #AC4E23",
"}. c #A14124",
"|. c #B34F20",
" X c #A45423",
".X c #AD5427",
"XX c #AA5423",
"oX c #A55922",
"OX c #A45A25",
"+X c #AB5A24",
"@X c #A3562B",
"#X c #A95728",
"$X c #A45C2C",
"%X c #AB5A29",
"&X c #B45021",
"*X c #B15423",
"=X c #B35B2A",
"-X c #B55A27",
";X c #9E613A",
":X c #A6643C",
">X c #A36436",
",X c #8C5A40",
"<X c #875A41",
"1X c #955B42",
"2X c #886247",
"3X c #996345",
"4X c #946A53",
"5X c #AD724C",
"6X c #A6724C",
"7X c #A86D53",
"8X c #A47357",
"9X c #AA7457",
"0X c #B47C57",
"qX c #B8825B",
"wX c #B78867",
"eX c #BA896A",
"rX c #B68C74",
"tX c #BA9173",
"yX c #CA9269",
"uX c #E6B490",
/* pixels */
"                                                                                                                        ",
"                                                                                                                        ",
"                                                                                                                        ",
"                                                                                                                        ",
"                                                                                                                        ",
"                                                                                                                        ",
"                                                                                                                        ",
"                                                                                                                        ",
"                                                                                                                        ",
"                                                                                                                        ",
"                                                          $                                                             ",
"                                                    n 0 # j n h n                                                       ",
"                                                U C B l - F.e c N C Y                                                   ",
"                                            ~ ~ F x F.L.[ e.!.!.y w C E L                                               ",
"                                          ^ D n V G.L.+.' {.}.=.!.r > C U L                                             ",
"                                      H F k p G.S.7.7.J.| y.[.y.t.6.o.S.l B F                                           ",
"                                    Z Z k > < J.K.[.U.U.2.U.#X Xu.w.d. XJ.G.B n                                         ",
"                                  K N x p s s e.[.{. XOX2.n.#X Xn.k.d.*XU.).(.B M                                       ",
"                                J C t z s 8.1.y.l.{.XXoX..k.#X Xn.f.z.C.n.R.`./.Y m                                     ",
"                                m i r $.1.1.2.l.&X&Xm.N...n.#X XoXn.p.Z.m.n.U.).,XP g                                   ",
"                                v t @.+.6.2.3.m.C.&XXXXX..k..X XoXf.p.V.b.M.n.T.`.T P                                   ",
"                                5 t @.o.9.q.4.l.c.&XXX#X..k.XX X Xf.p.V.s.B.b. X_.G P                                   ",
"                                0 t @.o.9.q.4.l.&X*X#X#X&.k.#X XoXf.g.V.B.B.B.XXR.G S                                   ",
"                                0 t :.o.y.w.q.m..X.X@X@X+.[..Xn.oXw.p.x.B.b.b.m.@XG S                                   ",
"                                7 N >.=.y.y.w.XX#X X@X@X+.[.=Xf.OXy.4.g.b.M.b.m.T.G S                                   ",
"                                6 u <.=.k.n.u.+X#X X@X@X+.[.-Xf.$X X&.XXoXn.+X+XT.G ^                                   ",
"                                6 w >.=.k.n.v.+XXX X@X@X+.l.C.f.OXI.o.@XU.u.U.@X).G Q                                   ",
"                                7 0 ,.-.l.n.v.N.N.n.@X X{ j.C.b.OXJ., Y.'.>XR.T.`.T Q                                   ",
"                                M q :.-.j.v.a.b.b.N.n.n. .l.Z.m.OXY., Q.5XyX5X'.].T Q                                   ",
"                                M q @.-.j.b.f.b.b.N.n.k. .c.x.b.u.T., W.eXuX0XP./.P !                                   ",
"                                b h 1 %.k.m.f.m.n.n.#X0.0.*XC.b.v.OXO.1XrXtXwX3XR / W                                   ",
"                                m b e O.r.d.i.l.n. X#X9.0.-Xb.A.5.n.J.7X4Xj 2X8X2X/ W                                   ",
"                                m v e $.y.j.i.l.n. X%X0.w.=Xf.A.v.v.J.7X8X/.6X8XY ) `                                   ",
"                                f v 9 8.[.XXf.m.n. X%Xr.0.+Xn.m.v.N.e.:X0XqX0X3XZ ) `                                   ",
"                                m b x $.y.l.f.m.n. X%X0.9. XXXn.v.+Xk.@X;X:X$XY.<X/ W                                   ",
"                                f m x $.r.l.d.m.n. X#X9.3. X XoXv.v.h.@XT.U.u.T.,X( _                                   ",
"                                  m x $.e.l.0.f.XX#X X} ..#X XOXM.b.f.#X@XoXn.@X/.( _                                   ",
"                                  m j 1 &.f.0.f.n. X X] ..+X@X Xn.b.g..X Xm.b. X~.( )                                   ",
"                                  d j 1 &.h.0.f.n. X X} ..%X@X Xn.b.d.XXXXm.b. X~.(                                     ",
"                                  5 j 1 +.0.0.m.XX X X9.0.%X@X Xn.b.i.XXXXN.b. X~.I                                     ",
"                                  5 q 1 +.&.0.m.XXn. X0.0.XX@X Xv.b.;.{. XN.N.@X/.P                                     ",
"                                  4 0 z %.X...f. Xn. Xy.0.k. Xn.v.b.*.[.@X XXX@X/.L                                     ",
"                                  3 0 z %.} ] 0.y.k.#Xy.f.XX X XM.b.*.[.T.@X X@X^.U                                     ",
"                                  3 8 z +.{ ] 4.0.w. X3.0..X#X Xm.b.*.[.T.T.@XT.^.U                                     ",
"                                  # 4 r O.[ { 0.0.0.y.| } #X#X XN.m.*.[.@XT.T._.^.U                                     ",
"                                  + 4 c @.o.{ -.-.-.r.o.= t.e.K.#XXX..[.#X$X'.].R T                                     ",
"                                    + 8 e : = #.H.H.S., - ).D.D.J.e.| y.@XY.P.V n                                       ",
"                                      X @ ; . * 2 1 e ; @ x c l l < & < a a x 8 $                                       ",
"                                          . . . @ ; 9 8 + # 8 % > % O & & o                                             ",
"                                                                                                                        ",
"                                                                                                                        ",
"                                                                                                                        ",
"                                                                                                                        ",
"                                                                                                                        ",
"                                                                                                                        ",
"                                                                                                                        ",
"                                                                                                                        ",
"                                                                                                                        ",
"                                                                                                                        ",
"                                                                                                                        "
};
