/* XPM */
static char *_7861323fb264ff58812c7502675f5e8uFEciOUG8OckNEx2[] = {
/* columns rows colors chars-per-pixel */
"64 64 144 2 ",
"   c #66625F",
".  c #676461",
"X  c #6A6664",
"o  c #6D6966",
"O  c #6F6B68",
"+  c #726E6B",
"@  c #75716E",
"#  c #777370",
"$  c #7A7572",
"%  c #7E7976",
"&  c #807B77",
"*  c #827D7A",
"=  c #86817D",
"-  c #88837F",
";  c #8B8581",
":  c #8E8985",
">  c #908B87",
",  c #938E89",
"<  c #96918C",
"1  c #99938E",
"2  c #9C9691",
"3  c #9E9893",
"4  c #9E9894",
"5  c #9F9894",
"6  c #9F9994",
"7  c #9F9995",
"8  c #9F9894",
"9  c #A09994",
"0  c #A09995",
"q  c #A09A95",
"w  c #A19A95",
"e  c #A09A96",
"r  c #A19A96",
"t  c #A19B96",
"y  c #A19B97",
"u  c #A29B96",
"i  c #A29B97",
"p  c #A29C97",
"a  c #A39C97",
"s  c #A19B96",
"d  c #A39C98",
"f  c #A39D98",
"g  c #A49D98",
"h  c #A49D99",
"j  c #A49E99",
"k  c #A59E99",
"l  c #A59E9A",
"z  c #A59F9A",
"x  c #A69F9A",
"c  c #A69F9B",
"v  c #A49E99",
"b  c #A6A09B",
"n  c #A7A09B",
"m  c #A7A09C",
"M  c #A7A19C",
"N  c #A7A09B",
"B  c #A8A19C",
"V  c #A8A19D",
"C  c #A9A19D",
"Z  c #A8A29D",
"A  c #A9A29D",
"S  c #A9A29E",
"D  c #A9A39E",
"F  c #AAA29E",
"G  c #AAA39E",
"H  c #AAA39F",
"J  c #ABA39F",
"K  c #AAA49E",
"L  c #AAA49F",
"P  c #ABA49F",
"I  c #ABA59F",
"U  c #ACA49F",
"Y  c #AAA39E",
"T  c #ABA4A0",
"R  c #ABA5A0",
"E  c #ACA4A0",
"W  c #ACA5A0",
"Q  c #ADA5A0",
"!  c #ACA5A1",
"~  c #ADA5A1",
"^  c #ACA6A0",
"/  c #ADA6A0",
"(  c #ACA6A1",
")  c #ADA6A1",
"_  c #AEA6A1",
"`  c #AEA7A1",
"'  c #ADA6A2",
"]  c #AEA6A2",
"[  c #AEA7A2",
"{  c #AFA7A2",
"}  c #ADA6A1",
"|  c #AEA8A2",
" . c #AFA8A3",
".. c #AFA8A3",
"X. c #B0A8A3",
"o. c #B0A9A3",
"O. c #B0A8A4",
"+. c #B0A9A4",
"@. c #B1A9A4",
"#. c #B1A9A5",
"$. c #B1AAA4",
"%. c #B1AAA5",
"&. c #B2AAA5",
"*. c #B2ABA5",
"=. c #B2ABA6",
"-. c #B3ABA6",
";. c #B3ACA6",
":. c #B3ACA7",
">. c #B4ACA7",
",. c #B4ADA7",
"<. c #B1AAA5",
"1. c #B4ADA8",
"2. c #B5ADA8",
"3. c #B5AEA8",
"4. c #B5AEA9",
"5. c #B6AEA9",
"6. c #B6AFA9",
"7. c #B6AFAA",
"8. c #B7AFAA",
"9. c #B5AEA9",
"0. c #B7B0AA",
"q. c #B7B0AB",
"w. c #B7B0AB",
"e. c #B8B0AB",
"r. c #B8B1AB",
"t. c #B9B1AC",
"y. c #B9B2AC",
"u. c #BAB2AC",
"i. c #BAB2AD",
"p. c #BAB3AE",
"a. c #BBB3AE",
"s. c #BBB4AE",
"d. c #BCB4AF",
"f. c #BCB5AF",
"g. c #BDB5AF",
"h. c #B9B2AC",
"j. c #BEB6B1",
"k. c #BEB7B1",
"l. c #BEB6B1",
"z. c #BFB8B2",
"x. c #C1B9B3",
"c. c #C2BAB4",
"v. c #C3BBB5",
"b. c #C2BBB5",
/* pixels */
"r 2 B g r 4 f r r 2 < < 3 2 g B g W 3.q.r 2 4 1 < 1 * = * > 1 2 2 4 > ; + ; > 2 f < % ; ; + $ * : , g m W 3 r > * * @ O % ; > > ",
"< , 2 > 1 > > > : < 3 g g f W s.3.+.W W W B g r ; > $ = : > 1 +.W g 1 , 2 r < 2 < ; 2 r 1 , ; % - : 3 g B r 1 > @ @ $ @ = ; : = ",
"$ $ = > > & % < : > 1 g g W W 3.X.P W r 1 1 4 4 $ * * $ - , 4 p f p 2 2 2 2 , 3 1 , 1 2 ; f 2 ; - @ > 1 > : : 1 < . + @ * @ = $ ",
"O % % > = & > > , : ; 2 r B +.z.3.g r 3 2 < < g = ; , = < > < 2 b 4 < , ; = ; r > : = & $ = 2 > = $ * , f 2 1 > , - * # $ & * $ ",
"% * 1 > * ; > = : : , g f 2 W r.+.B f W B 4 3 1 ; : ; % ; : : 2 B B W b 2 * - < > = % - : * 2 B W +.g m f B f g 2 1 f < + * # @ ",
"% % ; ; - = : : * , 2 ; 1 g B  .f.+.r B g m p > ; ; ; * = > : $ ; 2 g  .2 2 4 2 1 ; * ; = % > 3 B B W 2 1 B b b < : 1 g * + % + ",
"% O X + : < 1 2 ; * = : ; 2 B B 3.P r 2 g < 1 > > : ; = ; % % + * 2 r r > r g > ; > $ + * * < : 2 r r 1 g r f g 1 : 1 f m $ @ $ ",
"; ; $ r B r g W 2 = * ; 2 r P W g 4 g 1 > 2 < g 2 2 : , ; = ; = % & * - < 3 2 , * % $ O + O % ; < +.P : 4 3 r B g 4 B g 1 ; O $ ",
"* - ; 1 , 2 1 2 f p > < W 3. .>. .+.g r > : 2 2 : > % = 1 1 , ; 4 < f P g 2 2 3 4 = % $ + O ; r b B r 1 2 ; = W 1 1 g : ; % + O ",
"& = ; ; > < : > 1 r 2 , 2 r 3 3.t.B g W r 2 3 B 2 < ; 1 m B 3 r 2 ; , p W g r 4 g f > = > > > < 2 , ; > < ; % = > & : g g r : % ",
"; ; = , > ; : : ; r P 2 2 f +.3.W +.+.W +.B r g +.B 4 r g r > r b r < p g 1 2 1 3 r 1 , 2 , r , , r g : * ; * O % ; * , > > , % ",
"* - < = * = ; - = : g r a W >.k.3.W >.+.B T B < W +.W B  .m < 1 2 B 4 2 f r 1 2 r 2 2 * > < m r g +.r $ & $ & & + @ * = < ; : = ",
"< r 4 < > , ; ; , 2 B 3.b B +.+.B +.3.b +.B W W W :.:.>. .r < < 4 f B P B 4 1 4 r 3 r & # : 1 2 r W b > : % @ X + # % * 2 r , > ",
"r g 4 r 1 4 B B B g b  .3.+.+.W :.3.:.b m B g B 3.W 2 3.3.< > < g p 4 1 1 p 2 b g f b > * = > 2 4 B P p $ % < * % + $ ; ; g > 1 ",
":.r.+.+.B P +.P W +.+.3.+.P W q.r.X.B +.W f b B W +.W W W P W g g W g b 1 r +.+.B 3 p 2 > * ; 2 g , f W f < 2 2 > % , f p W X.+.",
"+.W g B r r b 4 2 r W +.3.3.:.P  .3.P P +.W g P W g  .B r 2 2 r 4 : > : : 2 B +.W f 2 < > = < W 3.P W 2 g 1 < 3 : $ = , > 2 B W ",
"W W r g 2 1 f 4 1 2 r W +.>.+.+.g p +.r.W W g m r T P r 2 ; = , 3 > ; - * 2 W r r 4 < ; > , W t.t.g >.3.3.W 1 < % ; : - > 2 r g ",
" .B 3 f r , 1 3 p < < B B +.+.t.B 3.+.r P +.+.m r W g f : , : % : > : > r r g W g b > > < , P f.>.P B 2 g W B ; = ; > 1 1 4 g g ",
"+.1 1 : > : > > > > 1 2 b g P W b r p 3.3.c.3.+.W 3.x.t.2 > > , 2 : * ; , 2 > f B W 1 1 2 f g W P W r P q.f.T f : > > r +.P B 3.",
"g 4 3 < > m : ; ; : > : > 1 2 r 1 1 f g g B B r +.B m f r > > ; > , = ; 2 < ; r r 2 3 1 4 4 4 2 r W +.3.q.3.g r r B B m f B W f ",
"1 r W  .b 2 2 , 2 : , * & 1 1 g W r +.b 2 < g >.3.r. .W B 2 > O . : p f 1 p g r b g m g B r g W >.+.t.t.W +.r.:.m B g 2 1 f b b ",
"> 4 W 2 r 4 2 > > $ $ : > > 2 g g 1 2 2 , , 1  .f.f.+.p m r B < * : g r 1 1 g 3 p r 2 4 b g B 3.t.W :.g +.f.3.4 r p g 1 2 B W r ",
"2 g r 3 r b 4 > ; * + $ - > : 2 g < , 2 g b r 3.b B c.P g r 2 p 3 4 2 r r < < < f 2 2 3 p B g 3 W W P B +.t.B 1 3 2 r 2 W +.3.P ",
"B b 4 2 1 > < f , = : > * > , p r 2 1 > < r g W +. . .m 2 , 2 , > B p g B f , 2 f f < W B W B W g +.r.b f +.> 2 g f g P r P B 2 ",
"r b 1 * ; : > B 2 ; * & ; < g B W P B g m B g :.W +.B g 1 , , < , p r r W f 2 r 2 r r 2 g g T +.3.r.t.c.k.t.B r r r P B < B b 1 ",
"2 2 = ; ; = * > 2 4 & X * , g 4 B g 3 2 f < 1 b B 2 B B g , r g < > 2 3 g g 4 2 < 4 f 1 : r b > B +.>.q.f.B 2 b 2 1 r W W 3.t.r ",
"< : * * @ $ % $ , 4 r > > : - 2 B p > 1 2 > < r 2 W B p r r r r 2 2 1 2 1 1 < 2 1 > : 4 > > 1 g B :. .+.+.W 2 4 3 3 r m B b m , ",
"< < * % % # $ * * 2 U +.< < < > B :.r : < : ; 2 r B W 2 ; 2 2 2 1 B 2 B , ; 4 2 r p r b > = r r.3.+.+.+.+.3.W 2 , > g r 2 r 2 2 ",
"; > ; + # $ * > : , 1 < : , < < 2 2 B * * ; : < g 3 B ; = 2 1 > : > 2 > - > - : 1 W B 4 - 2 g p m 4 2 r g B r 1 1 > g 2 2 < , > ",
"$ $ $ $ @ O $ ; * 1 4 < : ; ; > r P W r = * ; : f p  ., ; 2 < ; = ; < ; = : > r > 2 f r 2 p r f f W B B W B < > > ; r m r 2 1 < ",
"= - - @ % + $ , , , 2 g > ; = > 2 W W b 2 2 1 4 B g 3 B 1 2 1 : = ; ; ; - > > , < r < : > 4 2 1 r B T 4 W +.B 2 - ; g g B f 1 : ",
"; : % % $ * > 3 2 2 4 > ; > 1 , 2 2 f p , 3 g B r 3 +.>.B g 2 2 : ; , > : , < < g  .4 : > , 1 < 2 +.4 1 B g B g g < g b b B b g ",
": = * # @ ; 1 r g 2 < ; , 2 f 4 r p B 2 ; 4 3 r P +. .:.B +.B B > = < > * 1 < 1 m 2 2 > > 1 g g 2 g +.f B b g m b B b b p m B P ",
"= * * : ; * , 1 : ; : < 1 4 b 4 g g 3 2 < r g 4 g :. .r f B P r B : ; , > > > , f < , 3 g r 3 2 g B W g g g r p B b T f r 4 b f ",
": ; ; ; : * % = : < , > : 1 4 B r 2 > > < 2 b g B W 3.X.B f B m P r : , > , : , 3 r 4 > < r 4 r 4 g r B X.g 4 B 3.W B B 4 , 1 2 ",
"% * = > * * + , 2 g g 3 1 > g B m 2 3 : = r :.W W +.+.B P b B g g +.r r > > 3 r r 2 B , ; ; r p 2 > < r B B P p B W b B 2 * * * ",
"- 2 r f ; - ; , g X.g < > > 2 B m B < r > : f 3.t.3.W B  .p m W +.+.P W b m B B r g 3 ; * * ; > < g g r 1 r W +.B T 2 P , * * - ",
"* : 2 4 1 , g g , 2 = @ * $ - 1 g r r r , < 3 +.+.t.+.+. .b P 3.+.B 4 r > < 2 B r ; % + $ @ @ $ > 2 B r , 2 r b g X.g 1 2 ; % : ",
"= > : ; > < > 2 ; = % + @ @ * = 2 g m 1 , 4 W W B W W B W W +.B g B g B 4 2 r m g = + O O X X $ = 1 p r < 2 g g b 1 g 1 > = $ % ",
"; > > : * & * % r g , = & = : 2 ; > P g f B W B W 3.r.+.P P B B g W +.+.3.k.+.B W > = & @ $ $ : > > 1 , > > < , 2 $ - > : * * * ",
"> < 2 < 2 1 3 W +.2 > * @ # ; 4 2 2 3 1 g m W B X.B +. .p 4 3 f r 1 4 r +.k.3.t.X.1 : * & @ O = : ; , < 2 2 < ; = * * = % < < 2 ",
", : 2 1 1 U P  .+.W r ; r : < 2 1 p 2 2 p g W W W +. .p f B 4 1 r r 1 1 B +.+.>.+.B = % + X + - 2 > 2 2 , > > , = * % ; % * < 1 ",
"> 1 ; : r B  .3.W m P > < , : < , 2 4 2 p r m W W x.r.W g 2 > , > 2 4 B P  .r.3.W  .p : * : $ % > 1 3 p 2 : 1 r < = + % * $ ; , ",
"2 4 1 > 1 p +.B 3.W g * * : ; : > 2 > > 2 g P W +.+.3.r.g < > : 2 2 4 g B W :.W P +.q.W g ; , > > g 4 - % - = ; 2 ; @ - : > > 1 ",
"g B m = ; m 3.3.t.r.2 $ % : > = > 2 1 2 2 < 2 W k.t.t.:.W < = - 1 r g r B W B W t.3.+.B 2 ; > > 1 2 2 * % ; ; = = ; * ; > < > 1 ",
"B 3 2 < % < 4 f P +.r ; $ ; 2 1 g f 2 , > 1 f b B :.+.+.W , > > 3 g 1 f W 4 r f B +.W P g 2 ; > > , : : ; * % % ; * ; 1 2 2 < 4 ",
"1 > > 4 $   @ - , r 2 : - 2 2 2 2 g 2 , , 2 1 r X.m m 1 2 > , 1 > 2 4 B 3.t.t. .W m +.W g ; = ; : ; - * : % $ * = * * ; > < > 2 ",
"1 1 1 - = ; ; - ; r > , < 2 1 : < > 2 1 < : 1 1 f 4 2 1 < 2 r r W B r r  .r.r.+.3.f b g 2 $ * 2 4 > : * ; ; * * * + = ; < 2 2 b ",
"2 2 > > = < T P 2 1 1 1 1 2 < > , 2 < r 1 2 r g 3 W  .B B r B B +.3.W g 1 W k.v.+.r 2 ; < * : P B f > : > > 1 > = * ; : r g f B ",
"< > * $ + @ = 2 g B 1 r g g r 2 , < - > 2 <  .X.W 3.W r r g g X.+.:.X.3.+.+.+.W g B m > 2 r r B f g r : > : 2 1 ; ; - > 2 3 r 3 ",
"2 * & = < 2 , f B P 4 1 r b b r 2 * > 1 , 4 g 2 g 4 b f > B W B W +.3.W 3.>.f 2 T +.m W b W b B b f r : < p 3 r < > = ; : 4 g 4 ",
"2 % * ; * = 1 g r 3 2 1 1 2 4 2 1 > < > : < , , p g B r ; ; P 3.+.+.W W X.b g r T 3.:. .b B W g g f r ; = 1 b r > : = > ; 1 g r ",
"1 * + * & & * 2 g b 1 1 2 < 1 r 2 1 > ; - : 2 T B B p r g 3 r W B k.t.f.W B p b W B B g W f : < : , > > ; : , 1 < , ; ; 1 > 2 g ",
"< % @ $ ; ; ; r 4 1 < > 2 1 < > < ; < , > , > r P W r 2 4 p 4 p r p W W +.b r b +.g B P 2 g < < : > ; : 1 < > r B < * * > > < 4 ",
"> ; - - * < < > 4 1 r 2 3 r 2 ; > > : : 2 1 , p r r m 2 1 r g 2 1 2 P W W b r f W W B f r f W W g 2 < - , 1 < f 1 < : * ; 1 , 1 ",
": > ; = : - > * > 2 , < > > > ; ; > : > r r r f 2 r 2 1 , 1 B ; > 2 4 p g 2 2 p 2 g b 2 > ; > ; = ; : > > > < > = ; - ; : < , > ",
"; = % ; 1 > > : 4 2 2 r g r g P < < > < < 2 4 r g B r , , > r g g B r B r < P p 4 1 2 1 1 1 : ; ; > ; ; ; ; ; > = ; ; ; > < 2 g ",
": > = ; > : , , g p r 2 < r B g g r > 2 4 g B r g g 2 p 4 < 4 :.r > 1 2 : $ $ 2 r < < < 2 2 : > > : ; * = ; ; = : 2 ; > : : > 1 ",
": = > * * ; % > 2 2 , ; 2 1 < b b 4 < 1 < 2 1 2 2 p r p , r +.W < g b < > ; ; > 4  .r , : ; 2 2 1 - - * ; = ; * * , : = - > > % ",
"; @ % ; = ; , : : : ; > r 1 ; : : 2 r < > > 2 3 2 3 2 ; % : r 4 , g > $ O % ; < 2 3 B b ; : 2 r 1 1 : = = : : ; - - ; > ; & > * ",
"* * ; = ; > < : : ; : , 2 > 2 r ; > r p 2 2 2 4 p r g p - ; 2 ; 2 g * @ @ - & ; > = , 3 1 , > > > 2 4 2 : > ; = ; > 1 < ; , > > ",
"$ = % ; - > : : : : , , 4 4 2 B : ; ; < , 4 r 4 r r 2 r < * * > > 3 ; ; % * ; , 2 3 > 4 p : = - ; < 1 r 2 < 1 1 1 r 2 3 < & ; = ",
"# * & > = > 2 2 < , , 1 1 B 4 g g 2 > ; ; , > > 2 4 1 ; ; = = , < B r 2 ; = = > 2 < 3 1 > = & , > : 1 f r 2 1 1 > ; = - $ + @ @ ",
": > < g < , 2 g 1 > 1 , 2 1 4 r +.+.W W , < 1 : * > ; @ # ; 1 1 2 2 2 4 2 : : , 4 ; > = % @ $ , 1 > 1 B p B < = * & # $ + + # + "
};
