/* XPM */
static char *ba3a54b5e81c4520d6ae0eff6c5155130qd9tDzG4QdcI2zR[] = {
/* columns rows colors chars-per-pixel */
"64 64 59 1 ",
"  c #0C0A11",
". c #161116",
"X c #181317",
"o c #1B151B",
"O c #1E191E",
"+ c #201A1F",
"@ c #181722",
"# c #1F1A20",
"$ c #231D23",
"% c #262126",
"& c #282127",
"* c #272228",
"= c #2B252B",
"- c #2E292E",
"; c #30272D",
": c #30292F",
"> c #2F2A30",
", c #2C2C3B",
"< c #312C31",
"1 c #322D32",
"2 c #362C33",
"3 c #352E33",
"4 c #372E33",
"5 c #332C34",
"6 c #332E34",
"7 c #372F34",
"8 c #362F37",
"9 c #3A2F35",
"0 c #373035",
"q c #353036",
"w c #393136",
"e c #3D3237",
"r c #373138",
"t c #383339",
"y c #3B333A",
"u c #3D333A",
"i c #39343B",
"p c #3A353B",
"a c #3C3439",
"s c #3C373D",
"d c #3F373D",
"f c #3D383E",
"g c #40393F",
"h c #3E3A41",
"j c #413940",
"k c #413D43",
"l c #443C42",
"z c #453C43",
"x c #453C44",
"c c #483F47",
"v c #444046",
"b c #47444A",
"n c #494349",
"m c #4C444B",
"M c #4D454D",
"N c #464451",
"B c #514B51",
"V c #584F58",
"C c #5A525B",
/* pixels */
";$O$:w733-:<===-<<6idy00-=7300000wddidy7<<*O==*%%%**%$<<<677-+dx",
"9-=<www3<--====-<<0rrr00<*<<00000wdddaw7<<%$<-====-<6$---:<<;$yu",
"e<yyww73<<-===-<<7rrr79r6$--<0000yddiy3<:-$$<-*%*=-<<$---<<33$9u",
"e9uwww377<<----<<7rr06<6=$=-<0000yiy0<<---$$<-=%%=-<-O-<-<<77*9u",
"eeeww030w3<<<<<<60r076<=oO=-<7700yy7<:----$$<-*%*=-<-X$<<<<73*9u",
":weeewwww3<<<<<><07<<<<<$O=--<<0007<:----*$O===*=--<>O=<<<<37$$:",
"9eewwwww333<<<><<6<<<<<<-$*=-<<773<:-----**oO=-==--<6*3<<<<<<*:9",
"eew77w7733<<<<<<666<<<<6-O*---<<<<<--<:-***o*<-----67=<<<<<<<-9w",
"ew9333333<<<<<<<<<<<<<<7-O*---<<<<--:<<:--*O-<----<77*<<<30<<=9w",
"9933337373<<<<<<<<<<<<<7<O=--<<<77-:<<<<<<-O-<<<<<>77%-<<<<<-$3w",
"www337wwww<<<<<<<<<<<<<76OO%%=---=$$$$*==*Oo=-----$-=O$$$$#$O.$-",
"www33wwyyw0<<<<<<<>><6<<7$<7yddyyyy-O$77<----<<6<--<-==--*#%=O=3",
"www93wyyyyw3<<<->---<76<6$dVCMcxzxxmdzj977w77000yyiir700kvr<<$<a",
"wyw33wwwyyw7<:<---==><776oyMd993399wadw77yy07770rrr07<<-<d<--$ya",
"aau333wwyyw0<<<-----><707O-u333337yaddayyiy77770ry076<<<<----$ig",
"daw3<39wyyw03<<--==--<7y-o=33<;<39yaaddiiiy77770yir77<<<<<--<$yj",
"faw3<30wyyw03<>------><=O.:3;;;:39ydadaiiiiy00yiiiy0076<<<--<*yx",
"faw337www000<<>--------0-o-3;;;;<3ydddaiiiiir0yiiiiy077<<---<=iv",
"gaw<<700w0007<>-===---<iiO&3;;;;<9adddddaiiyrrriiyiy0777<<---=<k",
"ja7<<<00www07<<----=-><yi#$:;;;;9dggddaaaiiyrrriiyyr07776<----$f",
"ka9<:<3700003<<<>>----<0i$$-;;=<dggjgdddaiiy00ryiir0777<<<-----b",
"kaw:-:<<<73-3<<<<<<----<i=$;*$-dggjzzgggaiyr070rry077<<<<<----=B",
"nfw==--<<7=%0<<<<<<<----6%$:-<wagjzzzjggdiyr0770r00777<<<<<--=$k",
"vff:=<-:<<$-07<<<<<<----<$$<;<wydgjjjggfdiiy070r077777<<<<<---$k",
"%%-*%=%%%$o$=====-==%%==*O$=-<wagggdggdaiiair0ry076<<<<<<<<-=%o%",
"O*=------==--<$=<i<%O-i0=oO$*-<3777<-->>-=--<<>-===--=*====%o$O.",
"-riir000r00077<70i0=>ifi0*.O=--<<<07# ,Nir0-OO>y6=>hki<riihk=y>O",
"000077<<<<<<<<<<<<<<6iiii-o=dy3ixiiy=@,hbkkk6%hhi0rifr0670r<$60=",
"776<<<<<<:<<<<<<<<70iiiifi$3073iy777>*rkfiffd6i00666607<<<<-$7r7",
"777<<<-----<<<<<<<0iiiiiif*<wwwy07<<<=firiffd<066<<66<<<<<6<%0rr",
"7776<<:----<<<<<670riiiiff=-30www7333-i00riih>06<<<<<<<<<0r6%600",
"7<<<<:-----<<0000000riiii>O=<37333333-6<<6rih=<0<<<<606660rr=r00",
"76<<------<<70rr0000riir<$o=<3333333&$---<7rr$=0<<<60r000riy>i00",
"76<>--===-<<00r00000rr0<ii$=::<33333=O&---<<$o%06<<60rrrriii>i00",
"66<---==-:<7rrr0000rrrrifi%-::<3<333:%<=--<<-#6r06<60rrryiii-irr",
"6<<------<<0rrrrrrrrrrridd=<<<33<333:&----<77*660060riiiiiii=irr",
"6<<------<<00ryriiiiriiihk=07773<333-%=--<<7<%<<6660riiiiihr$<rr",
"<<<-----<<<<00yiiiiiriifhr$00003<33:=$*--<<7<%<<<<600riirrr*o*0r",
"<<----:<<<<700rifffiiihh6*OO$$$$$%$$$O$%%%$$$$*%$$$$%=<6>%$OO<yr",
"<-----<<<<7000rdffffifhkki%OO%---*O&--=---$O-<:--*OO*ijkhir0%-ir",
"<:---<<76600ryidfffiifkkvh=6=<00<$O=3<--<<=7f0770i-0diiidfjdO-di",
"<<:-<<7000000ridfffffhkvb6O$=7677$O-07<--<7<07777w3yywwwyii0+%id",
"-<<<<<<<707-%$%-><<06><0<$O$<<<77$O-007<<<<<77777wiiwwwwwwww$o=<",
"<<<<<<<<<<<--$O<ffdfi<<<<<0<66677$$307<<<<<<77770yiiyw000ww<OO7j",
"ww7<<<<<<<-%->$dnnvzzzgai06<77777%=37w0<<<<<77770yiiy03<703$o$yd",
"www7<<<<<-$%*%$nnvzzzkfiw7<<<7777%$%%-:<<<<<77000iiy03<<<<%$$%yw",
"wwww<<---*$**%Ogvzzzzkfaw7<<<777<%XoOOo$=<<<<000wyy03<<<<-$=$$7w",
"wwww3<---$$*=*O-kzzzzzgaw0<<<0r0-Oo*--O%=-<<<00yyyy0<<<<<=&*$X$3",
"wwww7<---$%===O<gkzzzzfir7<<<006$O-<>=O$=-<<70wyyiiy0<<<-==$OO*3",
"wwww7<---$%*==$ijgjkkkgar76<700=$7r6>-O#=-<<70wyiiii0<--==%$OO:7",
"ww33<-===$$$#O$zzgggggfa0077006%<y77<>*o%-<3300ww-=7<<-==*$$O.%<",
"=$oO%%%$OoO$Oo$<dfggggai077700<<yyy76-%oO$=*%$**$O#$%%$$$$OO$$O%",
"$$$$<77<-%-<=Ok0<kfdfgdy77770000yyy00<--*---=O<r7r7>6>-=*&$$-<$$",
"%*-%<<<<<>>><=ivBzgffdaw77777000ryy00000>----#-<<<-%----=**&&&$$",
"%*=$>>>>>>>>7-=ngffggdiy077777700r077000<---=$-<<<-*-----&&&$$$$",
"%%$$---->---<**xdfdggdiy0007777700667007<>--=$-<<-**---=*&$$$$$&",
"$Oo+--=------%=kddfggdyww07777070r0670r07<--=$---=-******&&&&&&&",
"-=Oo=-==-----$<zddfgfdyw0<<<70070yr000yy06<>$+----<-=*******&**&",
"-:&.O*===----$0zadddii0007<<70000ii0yii<==**$o%*--<--*&&********",
"==$.o%====---$igiaddii077<<<7000yii0ii=OX.o$OO$**---=*&&**&&&&**",
"=&oo%=====<<<$wfiidday07776<700riiiii-$O..O$$$****--=**&&&$$%&**",
"=*Oo$%%$$%&%$o%===-:-----<>-<<<<<*<<=OoXX....$****==*****&$$$$&*",
"=*$..XoooX.oOO$%%$X=7706$O0r<<<<-=-=O$*<7<*.o-****$$$****&$$$&&*",
"ooo.XO&--$o-70riii*ikdyy=%ffiiiiyiff-yyyyz-.O7=$$$oX$$$$$$$$+Ooo"
};
