/* XPM */
static char *_ccfcfeddca540a5e69f81c5aae00b17Gm6CmVLJtOJJoVTt[] = {
/* columns rows colors chars-per-pixel */
"64 36 189 2 ",
"   c None",
".  c #090608",
"X  c #0E0A0A",
"o  c #120D0E",
"O  c #1C140E",
"+  c #1A1516",
"@  c #2C2215",
"#  c #352919",
"$  c #3A2E1E",
"%  c #31251A",
"&  c #3C321C",
"*  c #362F28",
"=  c #393533",
"-  c #41351B",
";  c #473A25",
":  c #4D3E25",
">  c #453C2C",
",  c #433728",
"<  c #086C09",
"1  c #106A0C",
"2  c #05750A",
"3  c #0B740B",
"4  c #067809",
"5  c #11720E",
"6  c #10790C",
"7  c #1E6515",
"8  c #196D14",
"9  c #1A7611",
"0  c #137210",
"q  c #216E14",
"w  c #296F19",
"e  c #3A6B1A",
"r  c #217313",
"t  c #2E7119",
"y  c #3C761F",
"u  c #35781B",
"i  c #43731D",
"p  c #4F4126",
"a  c #5A4625",
"s  c #5C4A27",
"d  c #55472B",
"f  c #5D4C2D",
"g  c #514324",
"h  c #514837",
"j  c #5D4F36",
"k  c #5F553E",
"l  c #624B27",
"z  c #674F2C",
"x  c #66512C",
"c  c #6C562C",
"v  c #6E5A2E",
"b  c #74592D",
"n  c #795E2D",
"m  c #6B5939",
"M  c #426723",
"N  c #536A2D",
"B  c #437D22",
"V  c #427323",
"C  c #5C7B26",
"Z  c #5A7428",
"A  c #7B612C",
"S  c #7F6B2D",
"D  c #6E7A2B",
"F  c #7A6332",
"G  c #786538",
"H  c #474341",
"J  c #534D43",
"K  c #575656",
"L  c #5D5C5A",
"P  c #6B614D",
"I  c #716650",
"U  c #626365",
"Y  c #6A6A6C",
"T  c #777778",
"R  c #876D2E",
"E  c #866D35",
"W  c #876E39",
"Q  c #89733B",
"!  c #9D7C36",
"~  c #947D3C",
"^  c #927439",
"/  c #806D40",
"(  c #887540",
")  c #947D45",
"_  c #837659",
"`  c #4D8026",
"'  c #67882B",
"]  c #75842F",
"[  c #878834",
"{  c #9F8433",
"}  c #958F37",
"|  c #9C9531",
" . c #AB893E",
".. c #B38D3D",
"X. c #B18B37",
"o. c #AF953B",
"O. c #AB943B",
"+. c #B7903E",
"@. c #BD943B",
"#. c #B4973B",
"$. c #C59B3D",
"%. c #CE9E3B",
"&. c #C9973B",
"*. c #D29E3A",
"=. c #CFA037",
"-. c #CDA13C",
";. c #D7A137",
":. c #D3A13B",
">. c #D4AC3C",
",. c #DCA93E",
"<. c #D8A339",
"1. c #E9B53F",
"2. c #938244",
"3. c #9F9640",
"4. c #A58544",
"5. c #AB8743",
"6. c #AA9548",
"7. c #BA9748",
"8. c #BE9D4B",
"9. c #B79744",
"0. c #B09950",
"q. c #B89F50",
"w. c #BAA244",
"e. c #B7A249",
"r. c #BAA255",
"t. c #B8B256",
"y. c #CC9D42",
"u. c #C09D49",
"i. c #C4A244",
"p. c #CFA342",
"a. c #CBAA4C",
"s. c #CDA648",
"d. c #D3A542",
"f. c #D3A946",
"g. c #DCAA40",
"h. c #DAAB49",
"j. c #D5A549",
"k. c #D5B14D",
"l. c #DAB54D",
"z. c #CEAF54",
"x. c #C5A657",
"c. c #D3AA57",
"v. c #CCB65D",
"b. c #D1B050",
"n. c #DAB451",
"m. c #DCBC5A",
"M. c #D7BB5C",
"N. c #E2AC42",
"B. c #E8AF47",
"V. c #E1AC48",
"C. c #E4B244",
"Z. c #EBB543",
"A. c #EDB944",
"S. c #EDB649",
"D. c #EDBC4B",
"F. c #F2B644",
"G. c #F1B946",
"H. c #F1BF4C",
"J. c #E6BD50",
"K. c #DEC053",
"L. c #EFC14C",
"P. c #ECC554",
"I. c #ECC65A",
"U. c #E0C15B",
"Y. c #F3C652",
"T. c #F1C956",
"R. c #F4CB5A",
"E. c #F5D15E",
"W. c #DBC266",
"Q. c #E2CD65",
"!. c #E2C866",
"~. c #F5D465",
"^. c #F7D865",
"/. c #F4D56A",
"(. c #F6D969",
"). c #F8D866",
"_. c #E3C770",
"`. c #7C7F80",
"'. c #808082",
"]. c #929394",
"[. c #979899",
"{. c #A2A5A4",
"}. c #ADAEAC",
"|. c #AAABA5",
" X c #B6B7B6",
".X c #B7B8B7",
"XX c #B8B9B7",
"oX c #B7B9B8",
"OX c #B8B9B8",
/* pixels */
"                                                                                                                                ",
"                                                                                                                                ",
"                                                                                                                                ",
"                                                                                                                                ",
"                                                                % * X                                                           ",
"                                                ; z l p       % W f       v m *                                                 ",
"                                                f ..h.k.6.~ ( e.m.f ; S ~ F ;                                                   ",
"                                                  # c u.x.q.r.W.v.2.r.{ -                                                       ",
"                                                      s i.4.2./ G G f @                                                         ",
"                                                        z.Q  .4.W G > $                                                         ",
"                                                        c.G ) ) 6.v.0.F o                                                       ",
"                                                      ) f.x._.!.~.~.I.p.:                                                       ",
"                                                    I 7.P.~.^.K.a.J.G.1...@                                                     ",
"                                                    ) D.~./.U.] 7 D f.C.d.E O                                                   ",
"                                                |._ a.m.^.t.V 5 4 2 i w.d.%.F +                                                 ",
"                                                _ s.M.Q.Q.B 2 1 3 < < Z g.:.%.c o                                               ",
"                                              P 8.R./.).t.0 3 N 7 M e D f.-.*.$.a X                                             ",
"                                            k 9.R.(.(.E.e.5 3 M 8 3.C.C.V.:.:.:.9.$                                             ",
"                                            ^ I.^.(.E.L.h.y 2 2 2 ' p.1.g.d.k.n.f.^ +                                           ",
"                                          m n.E.(.^.Y.G.D.9.t 2 2 2 t O.>.:.n.!.b.-.a .                                         ",
"                                          5.R.^.).T.G.F.F.G.w.C 3 < 4 u $.*.f.m.z.p.X.@                                         ",
"                                        p j.R.(.E.H.A.A.S.>.f.O.8 Z r 6 | *.d.l.8.&.:.x                                         ",
"                                        s V.R.^.T.A.F.G.#.u y [ q 6.B 2 } *.d.l.7.&.<.E                                         ",
"                                        l N.P.~.Y.A.F.G.i.q 2 w 9 ` 6 r o.=.%.:.-.%.<.R                                         ",
"                                        & y.f.8.H.G.F.A.S.} q 2 4 2 9 [ *.*.%.%.%.%.:.c                                         ",
"                                          S C. .h.S.Z.Z.Z.B.o.C 5 i [ y.*.*.%.%.%.:...#                                         ",
"                                          J W p.g.N.N.,.,.<.<.@.e { *.*.*.%.-.:.:.#.g =                                         ",
"                                          }.T j A ! +.$.%.*.:.%.o.$.;.<.d.y.@.! b , Y }.                                        ",
"                                          .XOX{.`.L J h d s x c b n A n c d > H U ].oXXX                                        ",
"                                                XX X}.{.].'.T Y U L K K U T [.}.XX                                              ",
"                                                                                                                                ",
"                                                                                                                                ",
"                                                                                                                                ",
"                                                                                                                                ",
"                                                                                                                                ",
"                                                                                                                                "
};
