/* XPM */
static char *_899f715c84f44139293a7975452934aCzBkesPfNfrUVGKl[] = {
/* columns rows colors chars-per-pixel */
"74 59 146 2 ",
"   c None",
".  c #050505",
"X  c #080706",
"o  c #070807",
"O  c #070708",
"+  c #070809",
"@  c #0B0B0B",
"#  c #100F0E",
"$  c #14110E",
"%  c #1C160E",
"&  c #0E0F12",
"*  c #100F13",
"=  c #0F1012",
"-  c #131314",
";  c #181211",
":  c #15161B",
">  c #181719",
",  c #16191B",
"<  c #1B1B1C",
"1  c #241B13",
"2  c #291E16",
"3  c #251D1C",
"4  c #2B2215",
"5  c #25201F",
"6  c #2E221B",
"7  c #322517",
"8  c #372B1F",
"9  c #3F2F1E",
"0  c #171A21",
"q  c #1A1B23",
"w  c #1F1F29",
"e  c #1E2124",
"r  c #1D222A",
"t  c #232425",
"y  c #2B2725",
"u  c #22242A",
"i  c #282428",
"p  c #242A2D",
"a  c #2A282C",
"s  c #352A23",
"d  c #36322C",
"f  c #3F342C",
"g  c #262632",
"h  c #252A32",
"j  c #292C35",
"k  c #2B2F38",
"l  c #27323B",
"z  c #2B323C",
"x  c #393738",
"c  c #42311F",
"v  c #422F23",
"b  c #443225",
"n  c #4C3922",
"m  c #41352F",
"M  c #453A2F",
"N  c #493A2D",
"B  c #553E25",
"V  c #523E2E",
"C  c #473C30",
"Z  c #4D3E33",
"A  c #473F39",
"S  c #513836",
"D  c #613F3F",
"F  c #5D4527",
"G  c #5C442B",
"H  c #5A4434",
"J  c #5B4936",
"K  c #50443B",
"L  c #60412C",
"P  c #664B2B",
"I  c #6C4E2E",
"U  c #634B33",
"Y  c #6E5030",
"T  c #725333",
"R  c #785834",
"E  c #765838",
"W  c #7C5C39",
"Q  c #2E3441",
"!  c #2F3844",
"~  c #553F42",
"^  c #4A4340",
"/  c #524243",
"(  c #5D4344",
")  c #514A47",
"_  c #5D4F4B",
"`  c #5D5650",
"'  c #6C4E4E",
"]  c #714848",
"[  c #775945",
"{  c #6C5555",
"}  c #6D585A",
"|  c #705C5F",
" . c #7E5859",
".. c #6B645F",
"X. c #686A6C",
"o. c #746C67",
"O. c #716769",
"+. c #7A676A",
"@. c #7E6A6D",
"#. c #7A736E",
"$. c #766E72",
"%. c #796E72",
"&. c #6F7479",
"*. c #797377",
"=. c #76767A",
"-. c #77797E",
";. c #835C3C",
":. c #87623A",
">. c #8B653B",
",. c #90683E",
"<. c #976544",
"1. c #966E41",
"2. c #906D56",
"3. c #A77947",
"4. c #A6704A",
"5. c #AD7E4C",
"6. c #806567",
"7. c #816669",
"8. c #8E6A6B",
"9. c #907666",
"0. c #827174",
"q. c #847B7D",
"w. c #AF804B",
"e. c #B5844E",
"r. c #BF8A51",
"t. c #BD8F70",
"y. c #C1855C",
"u. c #CA9256",
"i. c #D49A5B",
"p. c #C68A61",
"a. c #D5966B",
"s. c #C59A7D",
"d. c #EEA16C",
"f. c #787C80",
"g. c #868386",
"h. c #8F8385",
"j. c #858689",
"k. c #8B868A",
"l. c #878B8E",
"z. c #8C888D",
"x. c #8A8C8F",
"c. c #918488",
"v. c #878B91",
"b. c #8A8D91",
"n. c #8E9297",
"m. c #AF9584",
/* pixels */
"                                                                                                                                                    ",
"                                                                                                                                                    ",
"                                                                                                                                                    ",
"                                                                                                                                                    ",
"                                                                                                                                                    ",
"                                                                                                                                                    ",
"                                                                                                                                                    ",
"                                                                                                                                                    ",
"                                                                                                                                                    ",
"                                                                                                                                                    ",
"                                                                                                                                                    ",
"                                                                                                                                                    ",
"                                                                                                                                                    ",
"                                                                                        ,                                                           ",
"                                                                                . O = , r <                                                         ",
"                                                                              O @ - - < e e q                                                       ",
"                                                                            O @ - - - - , e p p                                                     ",
"                                                                          . @ - - - - - - , t j p                                                   ",
"                                                                          O - - - - - - - - < p p                                                   ",
"                                                                          @ @ @ & = - - - - < u p e                                                 ",
"                                                                          @ ; 2 6 3 - - - - - e t e                                                 ",
"                                                                          1 L <.4.;.b > > - - < t e                                                 ",
"                                                                          [ p.d.d.a.2.s > - - < e <                                                 ",
"                                  X.                                      9.t.p.y.s.m.H > - - < < <                                                 ",
"                                  f.l.                                    f N b b K K 6 - > - - < < -                                               ",
"                                  &.v.n.                                  . X . O @ # @ - - - - < < -                                               ",
"                                    -.b.b.                                . . . O O O O - - - - < < @ . .                                           ",
"                                      $.k.j.                              . . O O O O O & > - - - - O . . .                                         ",
"                                      ( +.z.=.                              . O O O o O & > - @ O O O @ $ %                                         ",
"                                        ( +.*.O.                            O O . . O O & - @ . . . # 9 T T F                                       ",
"                                          ~ } 6.                            . . O O O O @ O O . . O 2 1.u.e.:.F                                     ",
"                                            ( 7.q.                          1 $ O O O O O O @ & O X 7 5.i.w.R b                                     ",
"                                              ' 0.g.                        P 8 - O O O @ 0 h e - O % Y 3.W N t >                                   ",
"                                                | g.b.                    B >.U y - @ @ > h ! h > @ O 1 G N i 0 > -                                 ",
"                                                / %.z.x.                  V W E C e , < u k z p < & O O 1 q 0 0 w r                                 ",
"                                                  ( @.c.h.              q a m J N t u h k k k h q - O O O & 0 w h l                                 ",
"                                                    D  .8.          & > w g j x d y u j j j k j e - O O O - 0 w r r                                 ",
"                                                      D ] { )     - : q u j Q z e - u k k k z k e @ X O O @ : u u r                                 ",
"                                                        S _ ^ 5 * 0 q 0 , j z h     q p u u u e > O . O O O - q r q                                 ",
"                                                          A J E H y 0 : - 0 r       - < , - - - # @ O O O . & 0 q >                                 ",
"                                                          b ;.e.5.U < &             @ @ @ @ @ @ @ @ @ @ O @ - 0 q 0                                 ",
"                                                            >.5.r.>.4               . O O @ @ @ @ @ @ @ @ $ 3 i u r                                 ",
"                                                              :.,.T                 . O O @ - - - - - @ @ @ s Z f a                                 ",
"                                                                n M ) ..          O O @ @ @ @ - - - @ O O @ c I G                                   ",
"                                                                  ` o.#.          @ - O @ @ @ @ - - @ O @ O                                         ",
"                                                                                @ - - @ # - @ @ $ $ # @ - @ .                                       ",
"                                                                                - - - @ - $     @ # - - < -                                         ",
"                                                                                - - - # -         @ - - < -                                         ",
"                                                                                @ - - @             # - < - @                                       ",
"                                                                                O @ @ O             O @ - - @                                       ",
"                                                                                . O O @               @ - - @                                       ",
"                                                                                . o O @               . O @ @                                       ",
"                                                                                  . O +               . O @                                         ",
"                                                                                  . + .                 . +                                         ",
"                                                                                . . . .                 . . .                                       ",
"                                                                                                        . .                                         ",
"                                                                                                                                                    ",
"                                                                                                                                                    ",
"                                                                                                                                                    "
};
