/* XPM */
static char *_4ee725b46754e1ce6496aab9a45d69auwszQgSXwGWBLHST[] = {
/* columns rows colors chars-per-pixel */
"74 59 145 2 ",
"   c None",
".  c #050505",
"X  c #080706",
"o  c #070807",
"O  c #070708",
"+  c #070808",
"@  c #0B0B0B",
"#  c #100F0E",
"$  c #13110E",
"%  c #1C160E",
"&  c #0E0F12",
"*  c #100F13",
"=  c #0F1013",
"-  c #131314",
";  c #181211",
":  c #15161B",
">  c #181719",
",  c #17191B",
"<  c #1B1B1C",
"1  c #241B13",
"2  c #291E16",
"3  c #251D1C",
"4  c #2B2116",
"5  c #24201F",
"6  c #2E221B",
"7  c #322517",
"8  c #372B1F",
"9  c #3F2F1E",
"0  c #171A20",
"q  c #1B1C23",
"w  c #1F1F29",
"e  c #1E2124",
"r  c #1D222A",
"t  c #232425",
"y  c #2B2725",
"u  c #22242A",
"i  c #282428",
"p  c #242A2D",
"a  c #2B282C",
"s  c #352A23",
"d  c #37322C",
"f  c #3F342D",
"g  c #262632",
"h  c #252A32",
"j  c #292C35",
"k  c #2B2F38",
"l  c #2B323C",
"z  c #393738",
"x  c #42311F",
"c  c #422F23",
"v  c #443225",
"b  c #4C3823",
"n  c #41352F",
"m  c #453A2F",
"M  c #493A2D",
"N  c #553E25",
"B  c #523E2E",
"V  c #473C30",
"C  c #4D3E33",
"Z  c #473F39",
"A  c #503836",
"S  c #613E3F",
"D  c #5C4327",
"F  c #5C442A",
"G  c #5A4434",
"H  c #5B4936",
"J  c #50443B",
"K  c #60412C",
"L  c #664A2B",
"P  c #6B4D2E",
"I  c #634B33",
"U  c #6E5030",
"Y  c #725333",
"T  c #785834",
"R  c #765838",
"E  c #7C5C39",
"W  c #2E3441",
"Q  c #2F3844",
"!  c #553F41",
"~  c #623F40",
"^  c #4A4340",
"/  c #534143",
"(  c #5C4344",
")  c #514A47",
"_  c #5D4F4B",
"`  c #5D5651",
"'  c #6D4D4E",
"]  c #714848",
"[  c #775945",
"{  c #6C5555",
"}  c #6D585A",
"|  c #705C5F",
" . c #7E5859",
".. c #6B645F",
"X. c #67696C",
"o. c #746C67",
"O. c #706668",
"+. c #7A676A",
"@. c #7E6A6D",
"#. c #7A736E",
"$. c #766E73",
"%. c #796E72",
"&. c #797377",
"*. c #73767A",
"=. c #77797E",
"-. c #835C3B",
";. c #87623A",
":. c #8B653B",
">. c #90683E",
",. c #976544",
"<. c #966E41",
"1. c #906D56",
"2. c #A77947",
"3. c #A6704A",
"4. c #AD7E4C",
"5. c #806567",
"6. c #816669",
"7. c #8E6A6B",
"8. c #907665",
"9. c #827174",
"0. c #857A7D",
"q. c #AF804B",
"w. c #B5844E",
"e. c #BF8A51",
"r. c #BD8F70",
"t. c #C1855C",
"y. c #CA9256",
"u. c #D49A5B",
"i. c #C68A61",
"p. c #D5966B",
"a. c #C59A7D",
"s. c #EEA16C",
"d. c #787C80",
"f. c #868286",
"g. c #8E8386",
"h. c #858689",
"j. c #8B868A",
"k. c #868A8E",
"l. c #8A8B8F",
"z. c #8C888D",
"x. c #918488",
"c. c #878B91",
"v. c #8A8D91",
"b. c #8E9297",
"n. c #AF9584",
/* pixels */
"                                                                                                                                                    ",
"                                                                                                                                                    ",
"                                                                                                                                                    ",
"                                                                                                                                                    ",
"                                                                                                                                                    ",
"                                                                                                                                                    ",
"                                                                                                                                                    ",
"                                                                                                                                                    ",
"                                                                                                                                                    ",
"                                                                                                                                                    ",
"                                                                                                                                                    ",
"                                                                                                                                                    ",
"                                                                                                                                                    ",
"                                                          :                                                                                         ",
"                                                        , r , = + .                                                                                 ",
"                                                      q e e , - - @ +                                                                               ",
"                                                    p u q , > - > - @ +                                                                             ",
"                                                  p h t , > - - > > - @ .                                                                           ",
"                                                  p p < > - - > > - - - +                                                                           ",
"                                                e p u < > > - - = & @ @ @                                                                           ",
"                                                e t e > > > - > 3 6 2 ; @                                                                           ",
"                                                < e < > > > > v -.3.,.K 1                                                                           ",
"                                                < e < > > > s 1.p.s.s.i.[                                                                           ",
"                                                < < > > > > G n.a.t.t.r.8.                                      X.                                  ",
"                                              > < < > > > - 6 J C c v M f                                     k.d.                                  ",
"                                              - < < > > > - @ @ @ + . X .                                   b.c.*.                                  ",
"                                          . . @ < < > > > - + + + + . . .                                 v.v.=.                                    ",
"                                        . . . + - > > > > * + + + + + . .                               h.j.$.                                      ",
"                                        % $ @ + o + @ > > & O . + + + .                               *.z.+.(                                       ",
"                                      F Y Y 9 # . . . @ - & + . . . + +                             O.&.+.(                                         ",
"                                    D ;.w.y.<.2 O . . o + @ + + + + . .                             5.} !                                           ",
"                                    v T q.u.4.7 . + @ @ + + + + + + $ 1                           0.6.(                                             ",
"                                  > t M E 2.U % + - e h 0 @ + + + - 8 L                         f.9.'                                               ",
"                                = , q i M F 2 + @ > h Q h > @ @ : y I :.N                     v.f.|                                                 ",
"                                r w q q q 1 + + @ < p l k u < , e V R E B                   l.z.%./                                                 ",
"                                l h w q * + + + - q h k k k h u t M H n a q               g.x.@.(                                                   ",
"                                r r w q - + + + - e j k j j j p y d z j g w > &           7. .~                                                     ",
"                                r u w , @ + + X @ e k k k k k u > e l W j u q , -     ) { ] S                                                       ",
"                                q r q - + + + . + > e u u u p q     h l j , q q , * 5 ^ _ A                                                         ",
"                                > q q & . o + + @ # - > > < < >       r 0 - , q y G R H Z                                                           ",
"                                0 q q - @ + @ @ @ @ @ @ @ @ # @             & < I 4.w.-.v                                                           ",
"                                r u i 3 $ @ @ @ @ @ @ @ @ + @ X               4 :.e.4.:.                                                            ",
"                                a f C s @ @ @ - - - - - @ @ + .                 Y >.;.                                                              ",
"                                  D P x @ + + @ - - - @ @ @ @ + .           ..) m b                                                                 ",
"                                        + @ @ @ @ @ @ @ @ @ + - @           #.o.`                                                                   ",
"                                      . @ > - - $ @ @ @ - # @ > > @                                                                                 ",
"                                        > < > - # @     - - @ > > -                                                                                 ",
"                                        > < > - @         - # - > -                                                                                 ",
"                                      @ > < - @             @ - - @                                                                                 ",
"                                      @ - > # +             + @ @ +                                                                                 ",
"                                      @ - > @               + + + .                                                                                 ",
"                                      @ @ + +               @ + o .                                                                                 ",
"                                        @ + .               + + .                                                                                   ",
"                                        + .                 . . .                                                                                   ",
"                                      . . .                 . . . .                                                                                 ",
"                                        . .                                                                                                         ",
"                                                                                                                                                    ",
"                                                                                                                                                    ",
"                                                                                                                                                    "
};
